<svg width="36" height="37" viewBox="0 0 36 37" fill="none" xmlns="http://www.w3.org/2000/svg">
<g id="vscode-icons:file-type-pdf2">
<path id="Vector" d="M27.1125 2.83099L33.372 9.35599V34.169H9.98889V34.25H33.4519V9.43812L27.1125 2.83099Z" fill="#909090"/>
<path id="Vector_2" d="M27.0349 2.75H9.909V34.169H33.372V9.35713L27.0337 2.75" fill="#F4F4F4"/>
<path id="Vector_3" d="M9.73685 4.4375H2.5481V12.1179H25.1606V4.4375H9.73685Z" fill="#7A7B7C"/>
<path id="Vector_4" d="M25.281 11.9874H2.69434V4.30139H25.281V11.9874Z" fill="#DD2025"/>
<path id="Vector_5" d="M10.1835 5.60077H8.71313V11.0008H9.86963V9.1794L10.125 9.19402C10.3732 9.18975 10.619 9.1453 10.8529 9.0624C11.058 8.99186 11.2466 8.88049 11.4075 8.73502C11.5712 8.59645 11.7002 8.42155 11.7844 8.22427C11.8972 7.89633 11.9375 7.54781 11.9025 7.20277C11.8955 6.9563 11.8523 6.71219 11.7743 6.47827C11.7032 6.30942 11.5978 6.1572 11.4648 6.0313C11.3317 5.90541 11.1739 5.80859 11.0014 5.74702C10.8522 5.69302 10.6981 5.65383 10.5413 5.63002C10.4225 5.6117 10.3026 5.60192 10.1824 5.60077M9.96976 8.18152H9.86963V6.51652H10.0868C10.1826 6.50961 10.2787 6.52432 10.3681 6.55957C10.4575 6.59481 10.5378 6.64969 10.6031 6.72015C10.7385 6.90129 10.8108 7.12178 10.809 7.3479C10.809 7.62465 10.809 7.87552 10.5593 8.05215C10.3793 8.15111 10.1745 8.19567 9.96976 8.1804M14.0996 5.58615C13.9748 5.58615 13.8533 5.59515 13.7678 5.59852L13.5 5.60527H12.6225V11.0053H13.6553C14.0499 11.0161 14.4429 10.9492 14.8118 10.8084C15.1087 10.6906 15.3716 10.5008 15.5768 10.256C15.7763 10.009 15.9195 9.72147 15.9964 9.4134C16.0848 9.0645 16.1279 8.70568 16.1246 8.34577C16.1465 7.9207 16.1136 7.49459 16.0268 7.0779C15.9444 6.77118 15.7901 6.4885 15.5768 6.25327C15.4094 6.06333 15.2044 5.91012 14.9749 5.80327C14.7778 5.71206 14.5704 5.64482 14.3573 5.60302C14.2725 5.58902 14.1867 5.58262 14.1008 5.5839M13.896 10.013H13.7835V6.56602H13.7981C14.0301 6.53934 14.2647 6.58119 14.4731 6.6864C14.6258 6.80827 14.7501 6.9618 14.8376 7.1364C14.9321 7.32015 14.9865 7.52183 14.9974 7.72815C15.0075 7.97565 14.9974 8.17815 14.9974 8.34577C15.002 8.53887 14.9895 8.73199 14.9603 8.9229C14.9256 9.11891 14.8615 9.30855 14.7701 9.4854C14.6667 9.64982 14.527 9.78837 14.3618 9.8904C14.223 9.98017 14.0586 10.0221 13.8938 10.0096M19.6088 5.60527H16.875V11.0053H18.0315V8.86327H19.494V7.85977H18.0315V6.60877H19.6065V5.60527" fill="#464648"/>
<path id="Vector_6" d="M24.5036 23.2869C24.5036 23.2869 28.0901 22.6366 28.0901 23.8618C28.0901 25.0869 25.8683 24.5885 24.5036 23.2869ZM21.852 23.3803C21.2822 23.5062 20.7269 23.6905 20.1949 23.9304L20.6449 22.9179C21.0949 21.9054 21.5618 20.525 21.5618 20.525C22.0987 21.4288 22.7235 22.2774 23.427 23.0585C22.8965 23.1376 22.3707 23.2458 21.852 23.3825V23.3803ZM20.4323 16.0678C20.4323 15.0001 20.7776 14.7088 21.0465 14.7088C21.3154 14.7088 21.618 14.8381 21.6281 15.7651C21.5405 16.6973 21.3454 17.6161 21.0465 18.5034C20.6372 17.7585 20.4253 16.9211 20.4311 16.0711L20.4323 16.0678ZM15.2021 27.8983C14.1019 27.2401 17.5095 25.214 18.1271 25.1488C18.1238 25.1499 16.3541 28.5868 15.2021 27.8983ZM29.1375 24.0069C29.1263 23.8944 29.025 22.649 26.8088 22.7019C25.885 22.687 24.9617 22.7521 24.0491 22.8965C23.1652 22.006 22.404 21.0015 21.7856 19.9096C22.1752 18.784 22.411 17.6109 22.4865 16.4221C22.4539 15.0721 22.131 14.2981 21.096 14.3094C20.061 14.3206 19.9103 15.2263 20.0464 16.574C20.1797 17.4797 20.4313 18.364 20.7945 19.2043C20.7945 19.2043 20.3164 20.6926 19.6841 22.1731C19.0519 23.6536 18.6199 24.4299 18.6199 24.4299C17.5205 24.7878 16.4855 25.3195 15.5543 26.0049C14.6273 26.8678 14.2504 27.5304 14.7386 28.193C15.1594 28.7645 16.632 28.8939 17.9483 27.1693C18.6476 26.2785 19.2866 25.3419 19.8608 24.3658C19.8608 24.3658 21.8678 23.8156 22.4921 23.6649C23.1165 23.5141 23.8714 23.3949 23.8714 23.3949C23.8714 23.3949 25.704 25.2388 27.4714 25.1735C29.2388 25.1083 29.1533 24.1171 29.142 24.0091" fill="#DD2025"/>
<path id="Vector_7" d="M26.9482 2.83661V9.44373H33.2854L26.9482 2.83661Z" fill="#909090"/>
<path id="Vector_8" d="M27.0349 2.75V9.35713H33.372L27.0349 2.75Z" fill="#F4F4F4"/>
<path id="Vector_9" d="M10.0969 5.5141H8.62653V10.9141H9.78753V9.09385L10.044 9.10848C10.2922 9.10421 10.538 9.05976 10.7719 8.97685C10.977 8.90629 11.1656 8.79492 11.3265 8.64948C11.489 8.51053 11.6169 8.33566 11.7 8.13873C11.8129 7.81079 11.8532 7.46227 11.8182 7.11723C11.8111 6.87075 11.7679 6.62664 11.6899 6.39273C11.6189 6.22387 11.5135 6.07166 11.3804 5.94576C11.2474 5.81986 11.0896 5.72305 10.917 5.66148C10.7672 5.60695 10.6123 5.56738 10.4547 5.54335C10.3359 5.52503 10.2159 5.51525 10.0958 5.5141M9.88315 8.09485H9.78303V6.42985H10.0013C10.0971 6.42294 10.1933 6.43766 10.2826 6.4729C10.372 6.50815 10.4523 6.56302 10.5177 6.63348C10.653 6.81462 10.7253 7.03511 10.7235 7.26123C10.7235 7.53798 10.7235 7.78885 10.4738 7.96548C10.2939 8.06444 10.0891 8.109 9.88428 8.09373M14.013 5.49948C13.8882 5.49948 13.7667 5.50848 13.6812 5.51185L13.4168 5.5186H12.5393V10.9186H13.572C13.9667 10.9294 14.3597 10.8625 14.7285 10.7217C15.0254 10.604 15.2883 10.4141 15.4935 10.1694C15.6931 9.92237 15.8363 9.6348 15.9132 9.32673C16.0015 8.97783 16.0446 8.61901 16.0414 8.2591C16.0632 7.83403 16.0303 7.40792 15.9435 6.99123C15.8612 6.68451 15.7069 6.40183 15.4935 6.1666C15.3261 5.97666 15.1212 5.82345 14.8917 5.7166C14.6945 5.62539 14.4872 5.55816 14.274 5.51635C14.1893 5.50235 14.1034 5.49595 14.0175 5.49723M13.8128 9.92635H13.7003V6.47935H13.7149C13.9468 6.45267 14.1815 6.49452 14.3899 6.59973C14.5425 6.7216 14.6669 6.87513 14.7544 7.04973C14.8489 7.23348 14.9033 7.43516 14.9142 7.64148C14.9243 7.88898 14.9142 8.09148 14.9142 8.2591C14.9187 8.4522 14.9063 8.64532 14.877 8.83623C14.8424 9.03224 14.7783 9.22188 14.6869 9.39873C14.5835 9.56315 14.4438 9.7017 14.2785 9.80373C14.1397 9.8935 13.9754 9.93538 13.8105 9.92298M19.5222 5.5186H16.7884V10.9186H17.9449V8.7766H19.4074V7.7731H17.9449V6.5221H19.5199V5.5186" fill="white"/>
</g>
</svg>
