<svg width="28" height="28" viewBox="0 0 28 28" fill="none" xmlns="http://www.w3.org/2000/svg">
<g id="ri:capsule-fill">
<path id="Vector" opacity="0.3" d="M23.0743 4.92568C24.387 6.23842 25.1244 8.01883 25.1244 9.87526C25.1244 11.7317 24.387 13.5121 23.0743 14.8248L20.5986 17.2982L14.8248 23.0743C13.5084 24.3694 11.7336 25.0919 9.88702 25.0844C8.0404 25.0769 6.27155 24.34 4.96578 23.0342C3.66001 21.7284 2.9231 19.9596 2.91559 18.113C2.90807 16.2663 3.63054 14.4915 4.92564 13.1752L13.174 4.92568C14.4869 3.61295 16.2675 2.87549 18.1241 2.87549C19.9808 2.87549 21.7614 3.61295 23.0743 4.92568ZM17.2993 17.2993L10.7006 10.7007L6.5753 14.8248C5.70011 15.7 5.20843 16.8871 5.20843 18.1248C5.20843 19.3625 5.70011 20.5495 6.5753 21.4247C7.45049 22.2999 8.63751 22.7915 9.87522 22.7915C11.1129 22.7915 12.2999 22.2999 13.1751 21.4247L17.2993 17.2993Z" fill="black"/>
</g>
</svg>
