<svg width="41" height="41" viewBox="0 0 41 41" fill="none" xmlns="http://www.w3.org/2000/svg">
<g id="cil:paint-bucket">
<path id="Vector" opacity="0.3" d="M33.0149 23.5725L32.0139 24.8251C31.345 25.6622 28.0079 29.9667 28.0079 32.5032C28.0079 35.4221 30.254 37.7968 33.0148 37.7968C35.7757 37.7968 38.0219 35.4221 38.0219 32.5032C38.0219 29.9667 34.6848 25.6622 34.0157 24.8251L33.0149 23.5725ZM33.0149 35.2343C31.667 35.2343 30.5704 34.0091 30.5704 32.5032C30.5704 31.5693 31.8105 29.4696 33.0153 27.7626C34.2199 29.4683 35.4595 31.567 35.4595 32.5032C35.4595 34.0091 34.3628 35.2343 33.0149 35.2343ZM9.82309 4.12329L7.69813 9.96163L2.40969 7.7839L1.43402 10.1538L6.82096 12.372L2.15408 25.193C1.80664 26.151 1.85339 27.2077 2.28408 28.1313C2.71477 29.0549 3.49422 29.77 4.45144 30.1196L19.2434 35.5034C19.7177 35.6761 20.2214 35.7536 20.7257 35.7316C21.23 35.7096 21.725 35.5885 22.1825 35.3751C22.64 35.1618 23.051 34.8605 23.392 34.4883C23.733 34.1162 23.9974 33.6805 24.17 33.2061L31.839 12.1365L9.82309 4.12329ZM21.7627 32.3297C21.7052 32.4878 21.6171 32.633 21.5034 32.7571C21.3897 32.8812 21.2527 32.9816 21.1002 33.0527C20.9477 33.1238 20.7827 33.1642 20.6146 33.1715C20.4465 33.1789 20.2786 33.153 20.1205 33.0955L5.32814 27.7117C5.00883 27.5954 4.74876 27.3571 4.60515 27.0492C4.46154 26.7412 4.44614 26.3888 4.56235 26.0695L5.88997 22.4218H25.3687L21.7627 32.3297ZM6.82264 19.8593L9.19247 13.3481L12.1019 14.5461C12.1906 15.1172 12.4659 15.6428 12.885 16.0408C13.3041 16.4387 13.8432 16.6866 14.4181 16.7456C14.993 16.8047 15.5713 16.6715 16.0625 16.367C16.5537 16.0625 16.9301 15.6038 17.1329 15.0626C17.3357 14.5215 17.3535 13.9284 17.1834 13.376C17.0134 12.8237 16.6651 12.3433 16.193 12.0099C15.7209 11.6765 15.1517 11.509 14.5743 11.5335C13.9968 11.558 13.4438 11.7732 13.0017 12.1454L10.0696 10.938L11.3546 7.40778L28.5546 13.668L26.2656 19.9569V19.8593H6.82264Z" fill="black"/>
</g>
</svg>
