<svg width="36" height="37" viewBox="0 0 36 37" fill="none" xmlns="http://www.w3.org/2000/svg">
<g id="vscode-icons:file-type-excel">
<path id="Vector" d="M22.0286 17.7688L9.57599 15.575V31.7851C9.57614 31.9612 9.61097 32.1356 9.6785 32.2982C9.74602 32.4609 9.84493 32.6086 9.96955 32.733C10.0942 32.8575 10.2421 32.9561 10.4048 33.0234C10.5676 33.0906 10.742 33.1252 10.9181 33.125H32.4056C32.5819 33.1255 32.7566 33.0911 32.9196 33.024C33.0826 32.9569 33.2308 32.8583 33.3556 32.7338C33.4805 32.6094 33.5796 32.4615 33.6473 32.2987C33.7149 32.136 33.7498 31.9614 33.75 31.7851V25.8125L22.0286 17.7688Z" fill="#185C37"/>
<path id="Vector_2" d="M22.0286 3.875H10.9181C10.742 3.87485 10.5676 3.90939 10.4048 3.97665C10.2421 4.0439 10.0942 4.14256 9.96955 4.26697C9.84493 4.39139 9.74602 4.53914 9.6785 4.70178C9.61097 4.86442 9.57614 5.03877 9.57599 5.21488V11.1875L22.0286 18.5L28.6222 20.6938L33.75 18.5V11.1875L22.0286 3.875Z" fill="#21A366"/>
<path id="Vector_3" d="M9.57599 11.1875H22.0286V18.5H9.57599V11.1875Z" fill="#107C41"/>
<path id="Vector_4" opacity="0.1" d="M18.4882 9.72501H9.57599V28.0063H18.4882C18.8434 28.0045 19.1835 27.8629 19.4349 27.6121C19.6863 27.3613 19.8288 27.0215 19.8315 26.6664V11.0649C19.8288 10.7098 19.6863 10.37 19.4349 10.1192C19.1835 9.8684 18.8434 9.72677 18.4882 9.72501Z" fill="black"/>
<path id="Vector_5" opacity="0.2" d="M17.7559 10.4562H9.57599V28.7375H17.7559C18.111 28.7357 18.4511 28.5941 18.7025 28.3433C18.954 28.0925 19.0965 27.7527 19.0991 27.3976V11.7961C19.0965 11.441 18.954 11.1012 18.7025 10.8504C18.4511 10.5996 18.111 10.458 17.7559 10.4562Z" fill="black"/>
<path id="Vector_6" opacity="0.2" d="M17.7559 10.4562H9.57599V27.275H17.7559C18.111 27.2732 18.4511 27.1316 18.7025 26.8808C18.954 26.63 19.0965 26.2902 19.0991 25.9351V11.7961C19.0965 11.441 18.954 11.1012 18.7025 10.8504C18.4511 10.5996 18.111 10.458 17.7559 10.4562Z" fill="black"/>
<path id="Vector_7" opacity="0.2" d="M17.0235 10.4562H9.57599V27.275H17.0235C17.3786 27.2732 17.7187 27.1316 17.9702 26.8808C18.2216 26.63 18.3641 26.2902 18.3667 25.9351V11.7961C18.3641 11.441 18.2216 11.1012 17.9702 10.8504C17.7187 10.5996 17.3786 10.458 17.0235 10.4562Z" fill="black"/>
<path id="Vector_8" d="M3.59325 10.4562H17.0235C17.3793 10.4559 17.7206 10.5969 17.9725 10.8481C18.2243 11.0994 18.3662 11.4404 18.3668 11.7961V25.2039C18.3662 25.5596 18.2243 25.9006 17.9725 26.1518C17.7206 26.4031 17.3793 26.544 17.0235 26.5437H3.59325C3.41705 26.544 3.24252 26.5096 3.07964 26.4424C2.91676 26.3752 2.76871 26.2766 2.64396 26.1522C2.51922 26.0277 2.42021 25.8799 2.35262 25.7172C2.28502 25.5545 2.25015 25.3801 2.25 25.2039V11.7961C2.25015 11.6199 2.28502 11.4455 2.35262 11.2828C2.42021 11.12 2.51922 10.9722 2.64396 10.8478C2.76871 10.7234 2.91676 10.6248 3.07964 10.5576C3.24252 10.4904 3.41705 10.4559 3.59325 10.4562Z" fill="url(#paint0_linear_1_132)"/>
<path id="Vector_9" d="M6.41248 22.8571L9.23735 18.4876L6.64985 14.1429H8.72773L10.1396 16.925C10.2701 17.1883 10.3646 17.384 10.4074 17.5145H10.4265C10.5187 17.303 10.6166 17.0994 10.719 16.9003L12.2287 14.1474H14.1412L11.4874 18.4674L14.2087 22.8605H12.1736L10.5424 19.8106C10.4666 19.6795 10.4022 19.5421 10.35 19.4H10.323C10.2754 19.5385 10.212 19.671 10.134 19.7949L8.45435 22.8571H6.41248Z" fill="white"/>
<path id="Vector_10" d="M32.4068 3.875H22.0286V11.1875H33.75V5.21488C33.7499 5.03868 33.715 4.86424 33.6474 4.70152C33.5798 4.53881 33.4808 4.39101 33.356 4.26658C33.2313 4.14214 33.0832 4.04351 32.9204 3.97633C32.7575 3.90914 32.5829 3.87471 32.4068 3.875Z" fill="#33C481"/>
<path id="Vector_11" d="M22.0286 18.5H33.75V25.8125H22.0286V18.5Z" fill="#107C41"/>
</g>
<defs>
<linearGradient id="paint0_linear_1_132" x1="5.05575" y1="9.40324" x2="15.561" y2="27.5967" gradientUnits="userSpaceOnUse">
<stop stop-color="#18884F"/>
<stop offset="0.5" stop-color="#117E43"/>
<stop offset="1" stop-color="#0B6631"/>
</linearGradient>
</defs>
</svg>
