<svg width="45" height="45" viewBox="0 0 45 45" fill="none" xmlns="http://www.w3.org/2000/svg">
<g id="healthicons:accident-and-emergency-outline">
<g id="Group" opacity="0.3">
<path id="Vector" fill-rule="evenodd" clip-rule="evenodd" d="M18.4649 13.0931C16.3427 13.4599 14.7966 15.2579 14.5434 17.3969L12.6666 33.3335H33.3333L31.4526 17.375C31.202 15.2463 29.6701 13.4522 27.5595 13.0827C24.395 12.5286 21.7574 12.5235 18.4649 13.0931ZM20.0679 18.6705C20.1018 18.3349 20.0031 17.9994 19.7929 17.7356C19.5827 17.4719 19.2776 17.3008 18.943 17.259C18.6083 17.2171 18.2705 17.3079 18.0019 17.5118C17.7332 17.7157 17.555 18.0166 17.5052 18.3502L16.3363 27.6992C16.3109 27.8696 16.3198 28.0432 16.3625 28.21C16.4052 28.3769 16.4808 28.5335 16.5849 28.6706C16.689 28.8078 16.8195 28.9228 16.9687 29.0088C17.1178 29.0948 17.2827 29.1501 17.4536 29.1714C17.6244 29.1928 17.7979 29.1798 17.9636 29.1331C18.1294 29.0865 18.2841 29.0072 18.4188 28.8999C18.5535 28.7925 18.6653 28.6594 18.7478 28.5082C18.8302 28.357 18.8816 28.1909 18.8989 28.0196L20.0679 18.6705Z" fill="black"/>
<path id="Vector_2" fill-rule="evenodd" clip-rule="evenodd" d="M21.0289 15.3496C21.6001 15.7551 22.0506 16.3079 22.3326 16.949C22.6147 17.5902 22.7176 18.2958 22.6306 18.9908L21.4629 28.3399C21.3415 29.3087 20.8739 30.1482 20.1971 30.7502H30.4271L28.8874 17.6772C28.7557 16.5535 27.9781 15.7785 27.1153 15.6273C24.9569 15.2502 23.0982 15.1533 21.0289 15.3496ZM31.4527 17.375C31.2021 15.2463 29.6702 13.4522 27.5596 13.0827C24.395 12.5286 21.7574 12.5235 18.465 13.0931C16.3428 13.4599 14.7966 15.2579 14.5435 17.3969L12.6667 33.3335H33.3333L31.4527 17.375ZM20.0679 18.6705L18.899 28.0196C18.8816 28.1909 18.8303 28.357 18.7478 28.5082C18.6654 28.6594 18.5535 28.7925 18.4188 28.8999C18.2842 29.0072 18.1294 29.0865 17.9637 29.1331C17.7979 29.1798 17.6245 29.1928 17.4536 29.1714C17.2828 29.1501 17.1179 29.0948 16.9687 29.0088C16.8195 28.9228 16.689 28.8078 16.5849 28.6706C16.4808 28.5335 16.4052 28.3769 16.3625 28.21C16.3198 28.0432 16.3109 27.8696 16.3363 27.6992L17.5052 18.3502C17.5226 18.1788 17.574 18.0127 17.6564 17.8615C17.7389 17.7104 17.8507 17.5772 17.9854 17.4699C18.12 17.3626 18.2748 17.2832 18.4405 17.2366C18.6063 17.19 18.7797 17.1769 18.9506 17.1983C19.1215 17.2197 19.2863 17.275 19.4355 17.361C19.5847 17.447 19.7152 17.5619 19.8193 17.6991C19.9234 17.8363 19.999 17.9929 20.0417 18.1597C20.0844 18.3265 20.0933 18.5002 20.0679 18.6705ZM34.625 38.5002H11.375V35.9168H34.625V38.5002Z" fill="black"/>
<path id="Vector_3" d="M8.79163 23.0001C8.79163 23.4354 8.811 23.8655 8.84975 24.2917H4.91663V21.7084H8.84975C8.811 22.1347 8.79163 22.5648 8.79163 23.0001ZM11.3905 14.8057C10.8923 15.5106 10.4595 16.2594 10.0975 17.0429L6.69396 15.077L7.98563 12.8398L11.3905 14.8057ZM17.0415 10.0963C16.2549 10.4619 15.507 10.8959 14.8069 11.3906L12.8397 7.98575L15.0769 6.69408L17.0415 10.0976V10.0963ZM23 8.79175C22.5647 8.79175 22.1345 8.81112 21.7083 8.84987V4.91675H24.2916V8.84987C23.8622 8.81121 23.4312 8.79181 23 8.79175ZM31.1943 11.3906C30.4894 10.8925 29.7406 10.4597 28.9571 10.0976L30.923 6.69408L33.1602 7.98575L31.1943 11.3906ZM35.9037 17.0416C35.5411 16.259 35.1079 15.511 34.6095 14.807L38.0143 12.8398L39.306 15.077L35.9024 17.0416H35.9037ZM37.2083 23.0001C37.2083 22.5648 37.1889 22.1347 37.1502 21.7084H41.0833V24.2917H37.1502C37.1889 23.8655 37.2083 23.4354 37.2083 23.0001Z" fill="black"/>
</g>
</g>
</svg>
