<svg width="34" height="29" viewBox="0 0 34 29" fill="none" xmlns="http://www.w3.org/2000/svg">
<rect width="29" height="29" rx="3" fill="#F15A22"/>
<rect x="27.6569" y="9.34326" width="8" height="8" transform="rotate(45 27.6569 9.34326)" fill="#F15A22"/>
<path d="M11.448 14.096C11.448 11.152 12.824 9.344 14.936 9.344C17.032 9.344 18.424 11.152 18.424 14.096C18.424 17.088 17.032 18.992 14.936 18.992C12.824 18.992 11.448 17.088 11.448 14.096ZM19.912 21.536C19.608 21.632 19.208 21.712 18.68 21.712C17.4 21.712 16.328 21.184 15.8 20.144C18.28 19.712 19.944 17.472 19.944 14.096C19.944 10.336 17.88 8.048 14.936 8.048C11.992 8.048 9.928 10.336 9.928 14.096C9.928 17.536 11.656 19.808 14.216 20.16C14.872 21.776 16.36 22.944 18.52 22.944C19.224 22.944 19.848 22.816 20.2 22.688L19.912 21.536Z" fill="white"/>
</svg>
