<svg width="36" height="37" viewBox="0 0 36 37" fill="none" xmlns="http://www.w3.org/2000/svg">
<g id="vscode-icons:file-type-powerpoint2">
<path id="Vector" d="M20.853 3.11115V6.33202C24.678 6.35339 29.1296 6.29264 32.9513 6.35002C33.6735 6.35002 33.705 6.98902 33.714 7.54702C33.7747 14.2318 33.6994 21.1089 33.75 27.797C33.7365 28.0603 33.7432 29.0345 33.7354 29.3113C33.7106 30.2371 33.2471 30.2776 32.3212 30.3058C32.1727 30.3058 31.7362 30.3125 31.5923 30.3193C28.0136 30.3013 24.435 30.3091 20.853 30.3091V33.8889L2.25 31.0258V5.98215L20.853 3.11227" fill="#D33922"/>
<path id="Vector_2" d="M20.853 7.40527H32.6655V29.2303H20.853V26.375H29.4412V24.9406H20.853V23.1519H29.4412V21.7209H20.8564C20.8564 21.0189 20.8564 20.318 20.8496 19.6171C21.5523 19.8706 22.3026 19.9643 23.046 19.8913C23.7894 19.8183 24.5072 19.5806 25.1471 19.1953C25.7994 18.7667 26.3397 18.1883 26.7231 17.5085C27.1065 16.8286 27.3217 16.067 27.351 15.287C25.776 15.2758 24.2089 15.2803 22.6417 15.2803C22.6417 13.7233 22.6597 12.1674 22.6091 10.6138C22.0219 10.7263 21.4357 10.85 20.8519 10.9749V7.4064" fill="white"/>
<path id="Vector_3" d="M23.3618 9.8645C24.5821 9.94097 25.7329 10.4588 26.5994 11.3214C27.4659 12.184 27.989 13.3324 28.071 14.5524C26.496 14.5704 24.9289 14.5636 23.3584 14.5636V9.8645" fill="#D33922"/>
<path id="Vector_4" d="M7.98751 12.5667C9.93038 12.6601 12.285 11.7972 13.896 13.2541C15.4384 15.1261 15.03 18.5686 12.744 19.688C11.9128 20.0171 11.0117 20.1302 10.125 20.0165C10.125 21.416 10.1183 22.8155 10.125 24.2139C9.41626 24.1531 8.70413 24.0924 7.99538 24.035C7.96276 20.21 7.95601 16.385 7.99538 12.56" fill="white"/>
<path id="Vector_5" d="M10.1171 14.5018C10.8225 14.4691 11.6921 14.3409 12.1713 15.0024C12.363 15.3626 12.467 15.7629 12.475 16.1708C12.483 16.5787 12.3948 16.9828 12.2175 17.3503C11.8091 18.0871 10.8866 18.0163 10.1745 18.1018C10.0991 16.9025 10.107 15.7044 10.1171 14.5018Z" fill="#D33922"/>
</g>
</svg>
