<svg width="45" height="45" viewBox="0 0 45 45" fill="none" xmlns="http://www.w3.org/2000/svg">
<g id="clarity:piggy-bank-line" opacity="0.3" clip-path="url(#clip0_4_38)">
<path id="Vector" d="M24.65 13.0874C22.0112 12.5718 19.2812 12.7968 16.7625 13.7374C16.6402 13.7859 16.5286 13.8579 16.4342 13.9494C16.3397 14.041 16.2642 14.1502 16.212 14.2709C16.1065 14.5147 16.1022 14.7905 16.2 15.0374C16.2978 15.2844 16.4897 15.4824 16.7335 15.5879C16.9773 15.6934 17.253 15.6977 17.5 15.5999C19.6687 14.7799 22.0212 14.5724 24.3 14.9999C24.4336 15.0351 24.573 15.0422 24.7094 15.0208C24.8459 14.9994 24.9765 14.95 25.0929 14.8756C25.2093 14.8012 25.309 14.7036 25.3858 14.5887C25.4626 14.4739 25.5147 14.3444 25.539 14.2084C25.5632 14.0725 25.559 13.9329 25.5267 13.7986C25.4943 13.6644 25.4345 13.5382 25.351 13.4282C25.2675 13.3182 25.1621 13.2267 25.0414 13.1594C24.9208 13.0922 24.7875 13.0506 24.65 13.0374V13.0874Z" fill="black"/>
<path id="Vector_2" d="M31.725 22.5875C32.6639 22.5875 33.425 21.8264 33.425 20.8875C33.425 19.9486 32.6639 19.1875 31.725 19.1875C30.7861 19.1875 30.025 19.9486 30.025 20.8875C30.025 21.8264 30.7861 22.5875 31.725 22.5875Z" fill="black"/>
<path id="Vector_3" d="M44.3875 23.2876C44.2717 23.1162 44.1151 22.9762 43.9319 22.8802C43.7486 22.7842 43.5444 22.7352 43.3375 22.7376C42.3276 22.5974 41.4011 22.1008 40.725 21.3376C39.4241 19.9156 38.3186 18.3266 37.4375 16.6126L41.0375 10.9876C41.256 10.6616 41.3898 10.2863 41.4269 9.8957C41.464 9.50506 41.4032 9.11133 41.25 8.75006C41.0966 8.42139 40.8647 8.13549 40.5748 7.91751C40.2849 7.69954 39.9459 7.55618 39.5875 7.50006C37.2982 7.19154 34.9681 7.51576 32.85 8.43756C31.6361 8.97225 30.4939 9.65673 29.45 10.4751C27.4055 9.55828 25.2284 8.97182 23 8.73756C14.1375 7.87506 6.03753 13.6251 5.00003 21.2501C4.5957 21.0682 4.23357 20.8042 3.93663 20.475C3.63968 20.1458 3.41438 19.7585 3.27503 19.3376C3.1859 19.049 3.15547 18.7454 3.18553 18.4449C3.21558 18.1443 3.30552 17.8528 3.45003 17.5876C3.57962 17.3649 3.76483 17.1797 3.98753 17.0501C4.13937 16.9581 4.27162 16.8372 4.37672 16.6942C4.48183 16.5511 4.55773 16.3888 4.60009 16.2164C4.64246 16.0441 4.65046 15.865 4.62364 15.6896C4.59682 15.5141 4.5357 15.3457 4.44378 15.1938C4.35185 15.042 4.23092 14.9097 4.08789 14.8046C3.94485 14.6995 3.78251 14.6236 3.61015 14.5812C3.43778 14.5389 3.25875 14.5309 3.08329 14.5577C2.90783 14.5845 2.73937 14.6456 2.58753 14.7376C1.98243 15.109 1.48308 15.6298 1.13753 16.2501C0.816257 16.8321 0.614298 17.4724 0.543469 18.1335C0.47264 18.7946 0.534364 19.4631 0.725028 20.1001C0.959714 20.8719 1.3489 21.5879 1.86892 22.2046C2.38894 22.8213 3.02895 23.3259 3.75003 23.6876L4.90003 24.2626C5.04369 27.3054 5.81842 30.2851 7.17503 33.0126L7.38753 33.4876C8.47171 35.7805 9.85454 37.9199 11.5 39.8501C11.6172 39.9834 11.7614 40.0903 11.923 40.1635C12.0846 40.2368 12.26 40.2748 12.4375 40.2751H18.0875C18.2923 40.274 18.4936 40.2228 18.6739 40.1257C18.8541 40.0286 19.0078 39.8888 19.1214 39.7185C19.2349 39.5481 19.3049 39.3525 19.3252 39.1487C19.3454 38.945 19.3153 38.7394 19.2375 38.5501L18.75 37.4251L20.225 37.5876C21.8876 37.7519 23.5624 37.7519 25.225 37.5876C25.6875 38.3376 26.1875 39.0876 26.7375 39.8251C26.8526 39.9826 27.003 40.111 27.1767 40.2C27.3503 40.289 27.5424 40.3361 27.7375 40.3376H33.1625C33.3688 40.3374 33.5719 40.2862 33.7536 40.1884C33.9353 40.0907 34.09 39.9495 34.2039 39.7775C34.3177 39.6054 34.3873 39.4079 34.4062 39.2024C34.4252 38.997 34.393 38.79 34.3125 38.6001C34.1 38.1001 33.8875 37.5626 33.725 37.1001C33.5 36.4376 33.325 35.8501 33.1875 35.2876C34.568 34.5423 35.835 33.6036 36.95 32.5001C38.1955 32.6506 39.4546 32.6506 40.7 32.5001C40.9161 32.4674 41.1199 32.3786 41.2909 32.2426C41.462 32.1067 41.5944 31.9282 41.675 31.7251L44.5 24.4626C44.5795 24.2726 44.6108 24.0659 44.5912 23.8609C44.5716 23.656 44.5016 23.459 44.3875 23.2876ZM39.6625 30.0876C38.6812 30.1434 37.6968 30.0973 36.725 29.9501C35.6184 29.7631 34.5501 29.3957 33.5625 28.8626C33.2701 28.7175 32.9325 28.6927 32.6219 28.7933C32.3114 28.8939 32.0525 29.1121 31.9007 29.401C31.7488 29.69 31.7161 30.0269 31.8094 30.3398C31.9027 30.6526 32.1147 30.9165 32.4 31.0751C32.9224 31.349 33.4609 31.5911 34.0125 31.8001C33.3309 32.382 32.5741 32.8697 31.7625 33.2501L30.4375 33.8501C30.4375 33.8501 31.05 36.5876 31.4625 37.8001H28.4875C28.1875 37.3751 26.675 34.8501 26.675 34.8501L25.8375 34.9626C24.0783 35.2162 22.2958 35.2666 20.525 35.1126C19.7 35.0376 18.325 34.8626 17.25 34.6751L15.3125 34.3376C15.3125 34.3376 16.1 37.3751 16.25 37.7626H13.025C11.7077 36.1495 10.5911 34.3824 9.70003 32.5001L9.47503 32.0126C7.8509 28.8862 7.16505 25.3571 7.50003 21.8501C8.17503 15.3626 15.15 10.4626 22.7375 11.1751C24.9447 11.4225 27.0928 12.0483 29.0875 13.0251L29.8625 13.3876L30.4875 12.8001C31.4609 11.9303 32.561 11.2137 33.75 10.6751C35.3232 9.99273 37.0417 9.71347 38.75 9.86256L34.525 16.4751L34.8375 17.1001C35.9292 19.299 37.3218 21.3352 38.975 23.1501C39.7429 23.9005 40.6522 24.4911 41.65 24.8876L39.6625 30.0876Z" fill="black"/>
</g>
<defs>
<clipPath id="clip0_4_38">
<rect width="45" height="45" fill="white"/>
</clipPath>
</defs>
</svg>
