<svg width="22" height="22" viewBox="0 0 22 22" fill="none" xmlns="http://www.w3.org/2000/svg">
<path d="M5.93997 10.1198H10.12V5.93978C10.12 5.81878 10.219 5.71978 10.34 5.71978H11.66C11.781 5.71978 11.88 5.81878 11.88 5.93978V10.1198H16.06C16.181 10.1198 16.28 10.2188 16.28 10.3398V11.6598C16.28 11.7808 16.181 11.8798 16.06 11.8798H11.88V16.0598C11.88 16.1808 11.781 16.2798 11.66 16.2798H10.34C10.219 16.2798 10.12 16.1808 10.12 16.0598V11.8798H5.93997C5.81897 11.8798 5.71997 11.7808 5.71997 11.6598V10.3398C5.71997 10.2188 5.81897 10.1198 5.93997 10.1198Z" fill="black"/>
<path d="M21.12 22H0.88C0.39325 22 0 21.6068 0 21.12V0.880001C0 0.393251 0.39325 0 0.88 0H21.12C21.6067 0 22 0.393251 22 0.880001V21.12C22 21.6068 21.6067 22 21.12 22ZM20.02 1.98H1.98V20.02H20.02V1.98Z" fill="#DDDDDD"/>
</svg>
