<svg width="18" height="17" viewBox="0 0 18 17" fill="none" xmlns="http://www.w3.org/2000/svg">
<g id="ant-design:download-outlined">
<path id="Vector" d="M8.89541 10.9736C8.90783 10.9895 8.92371 11.0023 8.94183 11.0112C8.95995 11.02 8.97984 11.0246 9 11.0246C9.02016 11.0246 9.04005 11.02 9.05817 11.0112C9.07629 11.0023 9.09217 10.9895 9.10459 10.9736L10.964 8.62119C11.032 8.53486 10.9706 8.40703 10.8594 8.40703H9.6292V2.78906C9.6292 2.71602 9.56943 2.65625 9.49639 2.65625H8.50029C8.42725 2.65625 8.36748 2.71602 8.36748 2.78906V8.40537H7.14062C7.02939 8.40537 6.96797 8.5332 7.03604 8.61953L8.89541 10.9736ZM15.0762 10.3926H14.0801C14.007 10.3926 13.9473 10.4523 13.9473 10.5254V13.082H4.05273V10.5254C4.05273 10.4523 3.99297 10.3926 3.91992 10.3926H2.92383C2.85078 10.3926 2.79102 10.4523 2.79102 10.5254V13.8125C2.79102 14.1063 3.02842 14.3438 3.32227 14.3438H14.6777C14.9716 14.3438 15.209 14.1063 15.209 13.8125V10.5254C15.209 10.4523 15.1492 10.3926 15.0762 10.3926Z" fill="#888888"/>
</g>
</svg>
