<svg width="16" height="16" viewBox="0 0 16 16" fill="none" xmlns="http://www.w3.org/2000/svg">
<path fill-rule="evenodd" clip-rule="evenodd" d="M1 15C1 14.4477 1.44772 14 2 14H14C14.5523 14 15 14.4477 15 15C15 15.5523 14.5523 16 14 16H2C1.44772 16 1 15.5523 1 15Z" fill="#212121"/>
<path fill-rule="evenodd" clip-rule="evenodd" d="M3 10.2C3 7.37466 5.19316 5 8 5C10.8068 5 13 7.37466 13 10.2V16H3V10.2ZM8 7C6.38856 7 5 8.38615 5 10.2V14H11V10.2C11 8.38615 9.61144 7 8 7Z" fill="#212121"/>
<path fill-rule="evenodd" clip-rule="evenodd" d="M8 0C8.55228 0 9 0.447715 9 1V3C9 3.55228 8.55228 4 8 4C7.44772 4 7 3.55228 7 3V1C7 0.447715 7.44772 0 8 0Z" fill="#212121"/>
<path fill-rule="evenodd" clip-rule="evenodd" d="M1.58601 2.58586C1.97654 2.19534 2.6097 2.19534 3.00023 2.58586L4.41444 4.00008C4.80496 4.3906 4.80496 5.02376 4.41444 5.41429C4.02392 5.80481 3.39075 5.80481 3.00023 5.41429L1.58601 4.00008C1.19549 3.60955 1.19549 2.97639 1.58601 2.58586Z" fill="#212121"/>
<path fill-rule="evenodd" clip-rule="evenodd" d="M14.4141 2.58601C14.8047 2.97654 14.8047 3.6097 14.4141 4.00023L12.9999 5.41444C12.6094 5.80496 11.9762 5.80496 11.5857 5.41444C11.1952 5.02392 11.1952 4.39075 11.5857 4.00023L12.9999 2.58601C13.3904 2.19549 14.0236 2.19549 14.4141 2.58601Z" fill="#212121"/>
</svg>
