<svg width="17" height="16" viewBox="0 0 17 16" fill="none" xmlns="http://www.w3.org/2000/svg">
<g id="icon_study">
<path id="Vector (Stroke)" fill-rule="evenodd" clip-rule="evenodd" d="M4.5 2C3.94772 2 3.5 2.44772 3.5 3V10.1707C3.81278 10.0602 4.14936 10 4.5 10H13.5V2H4.5ZM15.5 1C15.5 0.447715 15.0523 0 14.5 0H4.5C2.84315 0 1.5 1.34315 1.5 3V13C1.5 14.6569 2.84315 16 4.5 16H14.5C15.0523 16 15.5 15.5523 15.5 15V1ZM3.5 13C3.5 13.5523 3.94772 14 4.5 14H13.5V12H4.5C3.94772 12 3.5 12.4477 3.5 13ZM5.5 5C5.5 4.44772 5.94772 4 6.5 4H10.5C11.0523 4 11.5 4.44772 11.5 5C11.5 5.55228 11.0523 6 10.5 6H6.5C5.94772 6 5.5 5.55228 5.5 5Z" fill="white"/>
</g>
</svg>
