<svg width="24" height="24" viewBox="0 0 24 24" fill="none" xmlns="http://www.w3.org/2000/svg">
<path d="M23.5 12C23.5 18.3513 18.3513 23.5 12 23.5C5.64873 23.5 0.5 18.3513 0.5 12C0.5 5.64873 5.64873 0.5 12 0.5C18.3513 0.5 23.5 5.64873 23.5 12Z" fill="white" stroke="#E1E1E1"/>
<path fill-rule="evenodd" clip-rule="evenodd" d="M14.1465 6.14645C14.3417 5.95118 14.6583 5.95118 14.8536 6.14645L16.8536 8.14645C17.0488 8.34171 17.0488 8.65829 16.8536 8.85355L9.85357 15.8536C9.79868 15.9084 9.73177 15.9498 9.65813 15.9743L6.65813 16.9743C6.47846 17.0342 6.28038 16.9875 6.14646 16.8536C6.01254 16.7196 5.96578 16.5216 6.02567 16.3419L7.02567 13.3419C7.05022 13.2682 7.09157 13.2013 7.14646 13.1464L14.1465 6.14645ZM7.93703 13.7701L7.29058 15.7094L9.22992 15.063L15.7929 8.5L14.5 7.20711L7.93703 13.7701Z" fill="#212121"/>
<path d="M12.7071 8L14.8848 10.1777L14.1777 10.8848L12 8.70711L12.7071 8Z" fill="#212121"/>
<path d="M12 16.5C12 16.2239 12.2239 16 12.5 16H16.5C16.7761 16 17 16.2239 17 16.5C17 16.7761 16.7761 17 16.5 17H12.5C12.2239 17 12 16.7761 12 16.5Z" fill="#212121"/>
</svg>
