<svg width="17" height="16" viewBox="0 0 17 16" fill="none" xmlns="http://www.w3.org/2000/svg">
<g id="icon_list">
<g id="Union">
<path d="M1.5 14C1.5 13.4477 1.94772 13 2.5 13H7.5C8.05228 13 8.5 13.4477 8.5 14C8.5 14.5523 8.05228 15 7.5 15H2.5C1.94772 15 1.5 14.5523 1.5 14Z" fill="#212121"/>
<path d="M1.5 2C1.5 1.44772 1.94772 1 2.5 1H14.5C15.0523 1 15.5 1.44772 15.5 2C15.5 2.55228 15.0523 3 14.5 3H2.5C1.94772 3 1.5 2.55228 1.5 2Z" fill="#212121"/>
<path d="M1.5 8C1.5 7.44772 1.94772 7 2.5 7H14.5C15.0523 7 15.5 7.44772 15.5 8C15.5 8.55228 15.0523 9 14.5 9H2.5C1.94772 9 1.5 8.55228 1.5 8Z" fill="#212121"/>
</g>
</g>
</svg>
