<svg width="15" height="15" viewBox="0 0 15 15" fill="none" xmlns="http://www.w3.org/2000/svg">
<path d="M1 0.5C1 0.776142 0.776142 1 0.5 1C0.223858 1 0 0.776142 0 0.5C0 0.223858 0.223858 0 0.5 0C0.776142 0 1 0.223858 1 0.5Z" fill="#999999"/>
<path d="M1 2.5C1 2.77614 0.776142 3 0.5 3C0.223858 3 0 2.77614 0 2.5C0 2.22386 0.223858 2 0.5 2C0.776142 2 1 2.22386 1 2.5Z" fill="#999999"/>
<path d="M1 4.5C1 4.77614 0.776142 5 0.5 5C0.223858 5 0 4.77614 0 4.5C0 4.22386 0.223858 4 0.5 4C0.776142 4 1 4.22386 1 4.5Z" fill="#999999"/>
<path d="M1 6.5C1 6.77614 0.776142 7 0.5 7C0.223858 7 0 6.77614 0 6.5C0 6.22386 0.223858 6 0.5 6C0.776142 6 1 6.22386 1 6.5Z" fill="#999999"/>
<path d="M1 8.5C1 8.77614 0.776142 9 0.5 9C0.223858 9 0 8.77614 0 8.5C0 8.22386 0.223858 8 0.5 8C0.776142 8 1 8.22386 1 8.5Z" fill="#999999"/>
<path d="M1 10.5C1 10.7761 0.776142 11 0.5 11C0.223858 11 0 10.7761 0 10.5C0 10.2239 0.223858 10 0.5 10C0.776142 10 1 10.2239 1 10.5Z" fill="#999999"/>
<path d="M1 12.5C1 12.7761 0.776142 13 0.5 13C0.223858 13 0 12.7761 0 12.5C0 12.2239 0.223858 12 0.5 12C0.776142 12 1 12.2239 1 12.5Z" fill="#999999"/>
<path d="M1 14.5C1 14.7761 0.776142 15 0.5 15C0.223858 15 0 14.7761 0 14.5C0 14.2239 0.223858 14 0.5 14C0.776142 14 1 14.2239 1 14.5Z" fill="#999999"/>
<path d="M0.5 14C0.776142 14 1 14.2239 1 14.5C1 14.7761 0.776142 15 0.5 15C0.223858 15 0 14.7761 0 14.5C0 14.2239 0.223858 14 0.5 14Z" fill="#999999"/>
<path d="M2.5 14C2.77614 14 3 14.2239 3 14.5C3 14.7761 2.77614 15 2.5 15C2.22386 15 2 14.7761 2 14.5C2 14.2239 2.22386 14 2.5 14Z" fill="#999999"/>
<path d="M4.5 14C4.77614 14 5 14.2239 5 14.5C5 14.7761 4.77614 15 4.5 15C4.22386 15 4 14.7761 4 14.5C4 14.2239 4.22386 14 4.5 14Z" fill="#999999"/>
<path d="M6.5 14C6.77614 14 7 14.2239 7 14.5C7 14.7761 6.77614 15 6.5 15C6.22386 15 6 14.7761 6 14.5C6 14.2239 6.22386 14 6.5 14Z" fill="#999999"/>
<path d="M8.5 14C8.77614 14 9 14.2239 9 14.5C9 14.7761 8.77614 15 8.5 15C8.22386 15 8 14.7761 8 14.5C8 14.2239 8.22386 14 8.5 14Z" fill="#999999"/>
<path d="M10.5 14C10.7761 14 11 14.2239 11 14.5C11 14.7761 10.7761 15 10.5 15C10.2239 15 10 14.7761 10 14.5C10 14.2239 10.2239 14 10.5 14Z" fill="#999999"/>
<path d="M12.5 14C12.7761 14 13 14.2239 13 14.5C13 14.7761 12.7761 15 12.5 15C12.2239 15 12 14.7761 12 14.5C12 14.2239 12.2239 14 12.5 14Z" fill="#999999"/>
<path d="M14.5 14C14.7761 14 15 14.2239 15 14.5C15 14.7761 14.7761 15 14.5 15C14.2239 15 14 14.7761 14 14.5C14 14.2239 14.2239 14 14.5 14Z" fill="#999999"/>
</svg>
